<svg width="800" height="520" viewBox="0 0 800 520" xmlns="http://www.w3.org/2000/svg" role="img" aria-label="BESS containers">
  <defs>
    <linearGradient id="a" x1="0" x2="1">
      <stop offset="0" stop-color="#e5efff"/>
      <stop offset="1" stop-color="#cfe2ff"/>
    </linearGradient>
    <linearGradient id="b" x1="0" x2="1">
      <stop offset="0" stop-color="#60a5fa"/>
      <stop offset="1" stop-color="#2563eb"/>
    </linearGradient>
  </defs>
  <rect width="100%" height="100%" fill="white"/>
  <g transform="translate(50,80)">
    <rect x="0" y="120" width="280" height="180" rx="10" fill="url(#a)" stroke="#d6def0"/>
    <rect x="320" y="80" width="280" height="220" rx="10" fill="url(#a)" stroke="#d6def0"/>
    <rect x="160" y="0" width="280" height="220" rx="10" fill="url(#a)" stroke="#d6def0"/>
    <g transform="translate(30,150)" fill="#2563eb">
      <rect x="0" y="0" width="36" height="6" rx="3"/>
      <rect x="48" y="0" width="36" height="6" rx="3" opacity="0.8"/>
      <rect x="96" y="0" width="36" height="6" rx="3" opacity="0.6"/>
      <rect x="144" y="0" width="36" height="6" rx="3" opacity="0.5"/>
    </g>
    <g transform="translate(350,110)" fill="#2563eb">
      <rect x="0" y="0" width="36" height="6" rx="3"/>
      <rect x="48" y="0" width="36" height="6" rx="3" opacity="0.8"/>
      <rect x="96" y="0" width="36" height="6" rx="3" opacity="0.6"/>
      <rect x="144" y="0" width="36" height="6" rx="3" opacity="0.5"/>
    </g>
    <g transform="translate(210,30)" fill="#2563eb">
      <rect x="0" y="0" width="36" height="6" rx="3"/>
      <rect x="48" y="0" width="36" height="6" rx="3" opacity="0.8"/>
      <rect x="96" y="0" width="36" height="6" rx="3" opacity="0.6"/>
      <rect x="144" y="0" width="36" height="6" rx="3" opacity="0.5"/>
    </g>
  </g>
</svg>